<svg id="Layer_1" data-name="Layer 1" xmlns="http://www.w3.org/2000/svg" viewBox="0 0 363.84 261.07"><title>eloolologo</title><path d="M226.37,466.29c-.85,6-1,12-1.62,18a49.6,49.6,0,0,0,1.63,10.35,49.6,49.6,0,0,1-1.63-10.35C225.39,478.32,225.52,472.26,226.37,466.29Z" transform="translate(-89 -259.63)" style="fill:none"/><path d="M433.85,287.7c-3.2-1.6-2.84-2.88-.81-4.95s4-3.68,5-6.41c.56-1.65.75-3-.44-4.49s-2.57-.27-3.69,0a10.74,10.74,0,0,0-3.9,2c-7.9,6.12-15.9,12-25.11,16.14a18.14,18.14,0,0,0-6.17,4.64c-8.34,9.83-10.55,20.87-5.68,33,4.1,10.19,15.25,19,27.13,18.38A62.64,62.64,0,0,0,435.26,343a6.31,6.31,0,0,1-1.63,4.26c-7.3,9.49-15.87,17.4-27.81,20.56-10.42,2.76-20.54,2.35-29.79-4-5.22-3.58-7.77-8.81-5.92-12.78a93,93,0,0,0,7.83-28.66c1.34-11.51.71-22.71-3.15-33.6-3.5-9.85-9.48-17.81-20-20.77-13.93-3.92-26.48,4.44-31.72,17.22-3.71,9.05-3.84,18.49-2.38,28.07,2.93,19.24,9.78,36.58,24.13,50.32,2.36,2.27,1.61,4.41-.38,6a33.19,33.19,0,0,1-12.75,6.35c-7.72,1.94-15.63,2.14-23.46,2.83-15,1.31-28.42,6.55-41.06,14.33-8.51,5.24-16.1,11.74-23.87,18-5.79,4.63-11.68,9.32-16,15.37-10,13.92-16.51,29.2-18.43,46.45-1.23,11.07-.72,21.64,4.46,31.72.31.6,1.42,1.4.45,2.25-.63.57-1.34,0-2.05-.24-14.19-5-27-12-36.27-24.39-7.45-10-12.09-21.06-10.57-33.79.74-6.15,3.22-11.83,9.61-14.28a278,278,0,0,0,33.44-14.86c9.86-5.34,19.74-10.81,28-18.37a244.08,244.08,0,0,0,24.23-25.35c13.88-16.94,25.08-35.26,30.94-56.54,3.86-14,5.21-28.07-.37-42A26.7,26.7,0,0,0,266,259.65c-10.8-.34-20.28,4.14-29.13,9.46-17.83,10.71-32.33,25.28-44.77,41.79a203,203,0,0,0-25.91,45,211,211,0,0,0-12,38.59c-1.67,8.34-2.72,16.75-3.63,25.18-.45,4.15-4.06,8.64-8.21,9.43-8.28,1.56-15.5-1.19-21.74-6.4-5.74-4.79-5.42-7.07.86-11.29.51-.35,1-.65,1.53-1,10.9-7.89,20.59-16.76,23.43-30.72,1.39-6.86.8-13.82-5-18.34-9.36-7.27-20.3-4.91-27.54,3.15-9.74,10.87-11.81,24.69-11.22,38.8.25,5.85-.21,7.78-5.4,10.55-2.28,1.22-4.81,2-6.77,3.79-1,.89-1.92,2-1.21,3.22a2.72,2.72,0,0,0,3.46,1.25,36.3,36.3,0,0,1,7.16-1.67c4.91-.49,7.09-1.17,9.58,3.85a20.23,20.23,0,0,0,3.17,4.09c5.8,6.47,13.84,8.72,21.68,11.26,7.45,2.41,13.5,6.31,17,13.67,2.26,4.7,3.43,9.73,5.08,14.59,5.49,16.21,16.78,27.49,30.28,37.06,9.07,6.43,19.28,10.39,29.93,13.11,11.6,3,23.4,3.78,35.15.75,21.52-5.56,33.19-20.77,39.78-40.92,3.52-10.76,4.1-21.84,3.71-33-.48-13.41-4.9-24.74-16.82-32.28-6.08-3.85-6.58-7.37-1.31-12,10.6-9.29,23.48-12.51,37.28-12.63a2.31,2.31,0,0,1,2,3.82c-7.74,10.78-11.52,22.35-10.11,36,1.58,15.36,16.14,31.95,35.28,28.59,10.55-1.84,20.92-10.56,23.58-21.64a47.46,47.46,0,0,0-.1-21.95c-2.6-11.64-8.7-20.84-19.06-27-2.61-1.55-2.76-3.11-.34-5.07,2.88-2.33,5.81-4.61,8.5-7.14,1.42-1.33,2.5-1.54,4.24-.66a68.71,68.71,0,0,0,39.81,6.78c16.52-1.94,29.31-10.17,39.58-22.72a70.93,70.93,0,0,0,13.93-29C455.71,311.3,449,295.32,433.85,287.7ZM224.75,484.32c.64-6,.77-12.06,1.62-18-.85,6-1,12-1.62,18a49.6,49.6,0,0,0,1.63,10.35A49.6,49.6,0,0,1,224.75,484.32Z" transform="translate(-89 -259.63)"/></svg>